<?xml version="1.0" encoding="utf-8" standalone="no"?>
<!DOCTYPE svg PUBLIC "-//W3C//DTD SVG 1.1//EN"
  "http://www.w3.org/Graphics/SVG/1.1/DTD/svg11.dtd">
<svg xmlns:xlink="http://www.w3.org/1999/xlink" width="347.571504pt" height="348.3075pt" viewBox="0 0 347.571504 348.3075" xmlns="http://www.w3.org/2000/svg" version="1.1">
 <metadata>
  <rdf:RDF xmlns:dc="http://purl.org/dc/elements/1.1/" xmlns:cc="http://creativecommons.org/ns#" xmlns:rdf="http://www.w3.org/1999/02/22-rdf-syntax-ns#">
   <cc:Work>
    <dc:type rdf:resource="http://purl.org/dc/dcmitype/StillImage"/>
    <dc:date>2025-06-22T18:37:07.578978</dc:date>
    <dc:format>image/svg+xml</dc:format>
    <dc:creator>
     <cc:Agent>
      <dc:title>Matplotlib v3.10.3, https://matplotlib.org/</dc:title>
     </cc:Agent>
    </dc:creator>
   </cc:Work>
  </rdf:RDF>
 </metadata>
 <defs>
  <style type="text/css">*{stroke-linejoin: round; stroke-linecap: butt}</style>
 </defs>
 <g id="figure_1">
  <g id="patch_1">
   <path d="M 0 348.3075 
L 347.571504 348.3075 
L 347.571504 0 
L 0 0 
z
" style="fill: #ffffff"/>
  </g>
  <g id="axes_1">
   <g id="patch_2">
    <path d="M 29.81375 153.385366 
L 178.426806 153.385366 
L 178.426806 7.2 
L 29.81375 7.2 
z
" style="fill: #ffffff"/>
   </g>
   <g id="matplotlib.axis_1">
    <g id="xtick_1">
     <g id="line2d_1">
      <defs>
       <path id="mabab97ce39" d="M 0 0 
L 0 3.5 
" style="stroke: #000000; stroke-width: 0.8"/>
      </defs>
      <g>
       <use xlink:href="#mabab97ce39" x="36.568889" y="153.385366" style="stroke: #000000; stroke-width: 0.8"/>
      </g>
     </g>
    </g>
    <g id="xtick_2">
     <g id="line2d_2">
      <g>
       <use xlink:href="#mabab97ce39" x="102.601528" y="153.385366" style="stroke: #000000; stroke-width: 0.8"/>
      </g>
     </g>
    </g>
    <g id="xtick_3">
     <g id="line2d_3">
      <g>
       <use xlink:href="#mabab97ce39" x="168.634166" y="153.385366" style="stroke: #000000; stroke-width: 0.8"/>
      </g>
     </g>
    </g>
   </g>
   <g id="matplotlib.axis_2">
    <g id="ytick_1">
     <g id="line2d_4">
      <defs>
       <path id="me0bfc6d97a" d="M 0 0 
L -3.5 0 
" style="stroke: #000000; stroke-width: 0.8"/>
      </defs>
      <g>
       <use xlink:href="#me0bfc6d97a" x="29.81375" y="140.294267" style="stroke: #000000; stroke-width: 0.8"/>
      </g>
     </g>
    </g>
    <g id="ytick_2">
     <g id="line2d_5">
      <g>
       <use xlink:href="#me0bfc6d97a" x="29.81375" y="113.756911" style="stroke: #000000; stroke-width: 0.8"/>
      </g>
     </g>
    </g>
    <g id="ytick_3">
     <g id="line2d_6">
      <g>
       <use xlink:href="#me0bfc6d97a" x="29.81375" y="87.219555" style="stroke: #000000; stroke-width: 0.8"/>
      </g>
     </g>
    </g>
    <g id="ytick_4">
     <g id="line2d_7">
      <g>
       <use xlink:href="#me0bfc6d97a" x="29.81375" y="60.682199" style="stroke: #000000; stroke-width: 0.8"/>
      </g>
     </g>
    </g>
    <g id="ytick_5">
     <g id="line2d_8">
      <g>
       <use xlink:href="#me0bfc6d97a" x="29.81375" y="34.144843" style="stroke: #000000; stroke-width: 0.8"/>
      </g>
     </g>
    </g>
    <g id="ytick_6">
     <g id="line2d_9">
      <g>
       <use xlink:href="#me0bfc6d97a" x="29.81375" y="7.607487" style="stroke: #000000; stroke-width: 0.8"/>
      </g>
     </g>
    </g>
    <g id="text_1">
     <!-- Intensity -->
     <g transform="translate(16.1475 107.152995) rotate(-90) scale(0.12 -0.12)">
      <defs>
       <path id="DejaVuSerif-49" d="M 1581 331 
L 2175 331 
L 2175 0 
L 353 0 
L 353 331 
L 947 331 
L 947 4331 
L 353 4331 
L 353 4666 
L 2175 4666 
L 2175 4331 
L 1581 4331 
L 1581 331 
z
" transform="scale(0.015625)"/>
       <path id="DejaVuSerif-6e" d="M 263 0 
L 263 331 
L 781 331 
L 781 2988 
L 231 2988 
L 231 3322 
L 1356 3322 
L 1356 2731 
Q 1516 3069 1770 3241 
Q 2025 3413 2363 3413 
Q 2913 3413 3172 3097 
Q 3431 2781 3431 2113 
L 3431 331 
L 3944 331 
L 3944 0 
L 2356 0 
L 2356 331 
L 2853 331 
L 2853 1931 
Q 2853 2541 2703 2767 
Q 2553 2994 2175 2994 
Q 1775 2994 1565 2701 
Q 1356 2409 1356 1850 
L 1356 331 
L 1856 331 
L 1856 0 
L 263 0 
z
" transform="scale(0.015625)"/>
       <path id="DejaVuSerif-74" d="M 691 2988 
L 184 2988 
L 184 3322 
L 691 3322 
L 691 4353 
L 1269 4353 
L 1269 3322 
L 2350 3322 
L 2350 2988 
L 1269 2988 
L 1269 878 
Q 1269 456 1350 337 
Q 1431 219 1650 219 
Q 1875 219 1978 351 
Q 2081 484 2088 781 
L 2522 781 
Q 2497 328 2275 118 
Q 2053 -91 1600 -91 
Q 1103 -91 897 129 
Q 691 350 691 878 
L 691 2988 
z
" transform="scale(0.015625)"/>
       <path id="DejaVuSerif-65" d="M 3469 1600 
L 991 1600 
L 991 1575 
Q 991 903 1244 561 
Q 1497 219 1991 219 
Q 2369 219 2611 417 
Q 2853 616 2950 1006 
L 3413 1006 
Q 3275 459 2904 184 
Q 2534 -91 1931 -91 
Q 1203 -91 761 389 
Q 319 869 319 1663 
Q 319 2450 753 2931 
Q 1188 3413 1894 3413 
Q 2647 3413 3050 2948 
Q 3453 2484 3469 1600 
z
M 2791 1931 
Q 2772 2513 2545 2808 
Q 2319 3103 1894 3103 
Q 1497 3103 1269 2806 
Q 1041 2509 991 1931 
L 2791 1931 
z
" transform="scale(0.015625)"/>
       <path id="DejaVuSerif-73" d="M 359 184 
L 359 959 
L 691 959 
Q 703 588 923 403 
Q 1144 219 1575 219 
Q 1963 219 2166 364 
Q 2369 509 2369 788 
Q 2369 1006 2220 1140 
Q 2072 1275 1594 1428 
L 1178 1569 
Q 750 1706 558 1912 
Q 366 2119 366 2438 
Q 366 2894 700 3153 
Q 1034 3413 1625 3413 
Q 1888 3413 2178 3344 
Q 2469 3275 2778 3144 
L 2778 2419 
L 2447 2419 
Q 2434 2741 2221 2922 
Q 2009 3103 1644 3103 
Q 1281 3103 1095 2975 
Q 909 2847 909 2591 
Q 909 2381 1050 2254 
Q 1191 2128 1613 1997 
L 2069 1856 
Q 2541 1709 2748 1489 
Q 2956 1269 2956 922 
Q 2956 450 2595 179 
Q 2234 -91 1600 -91 
Q 1278 -91 972 -22 
Q 666 47 359 184 
z
" transform="scale(0.015625)"/>
       <path id="DejaVuSerif-69" d="M 622 4353 
Q 622 4497 726 4603 
Q 831 4709 978 4709 
Q 1122 4709 1226 4603 
Q 1331 4497 1331 4353 
Q 1331 4206 1228 4103 
Q 1125 4000 978 4000 
Q 831 4000 726 4103 
Q 622 4206 622 4353 
z
M 1356 331 
L 1900 331 
L 1900 0 
L 231 0 
L 231 331 
L 781 331 
L 781 2988 
L 231 2988 
L 231 3322 
L 1356 3322 
L 1356 331 
z
" transform="scale(0.015625)"/>
       <path id="DejaVuSerif-79" d="M 1381 -609 
L 1600 -56 
L 359 2988 
L -19 2988 
L -19 3322 
L 1509 3322 
L 1509 2988 
L 978 2988 
L 1913 703 
L 2847 2988 
L 2350 2988 
L 2350 3322 
L 3597 3322 
L 3597 2988 
L 3225 2988 
L 1703 -750 
Q 1547 -1138 1356 -1280 
Q 1166 -1422 819 -1422 
Q 672 -1422 517 -1397 
Q 363 -1372 206 -1325 
L 206 -691 
L 500 -691 
Q 519 -903 608 -995 
Q 697 -1088 884 -1088 
Q 1056 -1088 1161 -992 
Q 1266 -897 1381 -609 
z
" transform="scale(0.015625)"/>
      </defs>
      <use xlink:href="#DejaVuSerif-49"/>
      <use xlink:href="#DejaVuSerif-6e" transform="translate(39.501953 0)"/>
      <use xlink:href="#DejaVuSerif-74" transform="translate(103.90625 0)"/>
      <use xlink:href="#DejaVuSerif-65" transform="translate(144.091797 0)"/>
      <use xlink:href="#DejaVuSerif-6e" transform="translate(203.271484 0)"/>
      <use xlink:href="#DejaVuSerif-73" transform="translate(267.675781 0)"/>
      <use xlink:href="#DejaVuSerif-69" transform="translate(318.994141 0)"/>
      <use xlink:href="#DejaVuSerif-74" transform="translate(350.976562 0)"/>
      <use xlink:href="#DejaVuSerif-79" transform="translate(391.162109 0)"/>
     </g>
    </g>
   </g>
   <g id="line2d_10">
    <path d="M 36.568889 146.734262 
L 58.095529 146.717312 
L 64.698793 146.696251 
L 72.62271 146.616512 
L 73.150971 146.421426 
L 73.547167 146.0089 
L 73.943362 145.085852 
L 74.339558 143.205385 
L 74.735754 139.717659 
L 75.13195 133.836265 
L 75.528146 124.836243 
L 76.056407 107.478169 
L 77.112929 61.614444 
L 77.773255 36.997391 
L 78.301517 24.417534 
L 78.697712 19.015004 
L 79.093908 16.117315 
L 79.490104 14.756216 
L 79.8863 14.188687 
L 80.414561 13.936259 
L 81.206953 13.88755 
L 81.735214 14.043362 
L 81.999344 14.282706 
L 82.263475 14.754321 
L 82.527605 15.619007 
L 82.791736 17.100251 
L 83.187932 21.093215 
L 83.584128 28.087749 
L 84.112389 43.14022 
L 84.90478 75.499052 
L 85.829237 111.674155 
L 86.357498 124.521766 
L 86.753694 129.998382 
L 87.14989 132.754445 
L 87.414021 133.572708 
L 87.678151 133.893279 
L 87.942282 133.929982 
L 88.602608 133.638369 
L 89.395 133.411896 
L 90.715653 133.375531 
L 92.168371 133.479985 
L 92.696632 133.71542 
L 93.092828 134.116017 
L 93.489023 134.820983 
L 94.017284 136.348678 
L 94.809676 139.681203 
L 95.734133 143.561337 
L 96.262394 145.06663 
L 96.790655 145.968896 
L 97.318916 146.420202 
L 97.979243 146.631758 
L 99.16783 146.681347 
L 99.960222 146.575073 
L 100.356418 146.365251 
L 100.752614 145.863796 
L 101.148809 144.770204 
L 101.545005 142.595179 
L 101.941201 138.65528 
L 102.337397 132.165907 
L 102.865658 118.463073 
L 103.525984 93.307138 
L 104.846637 38.775819 
L 105.374898 25.47838 
L 105.771094 19.596691 
L 106.16729 16.361648 
L 106.563486 14.813957 
L 106.959682 14.172276 
L 107.355877 13.94202 
L 108.148269 13.850474 
L 109.997183 13.917743 
L 110.393379 14.115777 
L 110.657509 14.433616 
L 110.92164 15.037265 
L 111.185771 16.105762 
L 111.581966 19.101523 
L 111.978162 24.577379 
L 112.374358 33.280103 
L 112.902619 50.077524 
L 114.751533 115.675049 
L 115.279794 124.905987 
L 115.67599 128.911174 
L 116.072186 131.186294 
L 116.468382 132.368339 
L 116.864577 132.92982 
L 117.392839 133.215546 
L 118.18523 133.306577 
L 120.826536 133.478076 
L 121.354797 133.798281 
L 121.750993 134.300425 
L 122.147189 135.130773 
L 122.67545 136.819864 
L 123.599907 140.837652 
L 124.392298 143.946692 
L 124.920559 145.312405 
L 125.44882 146.108608 
L 125.977082 146.499294 
L 126.637408 146.680312 
L 127.825995 146.706808 
L 128.618387 146.56095 
L 129.014583 146.304822 
L 129.410779 145.714337 
L 129.806975 144.453464 
L 130.20317 141.985425 
L 130.599366 137.580361 
L 130.995562 130.434523 
L 131.523823 115.641738 
L 132.18415 89.267229 
L 133.372737 39.611838 
L 133.900998 25.889736 
L 134.297194 19.821424 
L 134.69339 16.494071 
L 135.089586 14.905111 
L 135.485782 14.239493 
L 135.881977 13.989175 
L 136.542304 13.883928 
L 137.20263 13.95887 
L 137.598826 14.215056 
L 137.862957 14.617229 
L 138.127087 15.365658 
L 138.391218 16.666477 
L 138.787413 20.239105 
L 139.183609 26.633742 
L 139.579805 36.602339 
L 140.108066 55.414383 
L 141.69285 117.008734 
L 142.221111 127.497838 
L 142.617306 131.563104 
L 143.013502 133.376828 
L 143.277633 133.814395 
L 143.541763 133.912104 
L 144.070025 133.709878 
L 144.862416 133.414382 
L 145.918938 133.34134 
L 147.899918 133.446575 
L 148.428179 133.710735 
L 148.824375 134.152415 
L 149.22057 134.9122 
L 149.748831 136.514812 
L 150.541223 139.894377 
L 151.46568 143.696887 
L 151.993941 145.138463 
L 152.522202 145.993468 
L 153.050463 146.419785 
L 153.71079 146.622414 
L 155.031443 146.691707 
L 166.521122 146.719296 
L 171.671667 146.733642 
L 171.671667 146.733642 
" clip-path="url(#p7c866ee528)" style="fill: none; stroke: #ee82ee; stroke-width: 1.5; stroke-linecap: square"/>
   </g>
   <g id="line2d_11">
    <path d="M 36.568889 146.496086 
L 52.812918 146.459858 
L 58.887921 146.261105 
L 62.453683 145.937614 
L 65.094989 145.493734 
L 67.340099 144.899204 
L 69.321078 144.140626 
L 71.037926 143.250219 
L 72.62271 142.188866 
L 74.207493 140.850787 
L 75.660211 139.339517 
L 77.112929 137.516161 
L 78.565647 135.342615 
L 80.018365 132.783116 
L 81.603148 129.514169 
L 83.187932 125.717677 
L 84.90478 120.989622 
L 86.753694 115.184865 
L 88.734673 108.190907 
L 90.979783 99.431937 
L 94.14935 86.063032 
L 98.771634 66.567651 
L 100.884679 58.656639 
L 102.469462 53.497349 
L 103.92218 49.505892 
L 105.110768 46.844053 
L 106.16729 44.977808 
L 107.091747 43.753667 
L 107.884139 43.019351 
L 108.67653 42.582229 
L 109.336857 42.447567 
L 109.997183 42.522376 
L 110.657509 42.806024 
L 111.449901 43.419328 
L 112.242293 44.324985 
L 113.16675 45.740198 
L 114.223272 47.809503 
L 115.411859 50.675511 
L 116.732512 54.464241 
L 118.317295 59.732636 
L 120.298275 67.185988 
L 123.071645 78.626714 
L 128.750452 102.246853 
L 131.127627 111.063045 
L 133.108607 117.615911 
L 134.95752 123.007668 
L 136.674369 127.370739 
L 138.391218 131.125444 
L 139.976001 134.078039 
L 141.560784 136.574035 
L 143.145568 138.655637 
L 144.730351 140.36877 
L 146.315134 141.760432 
L 148.031983 142.958548 
L 149.748831 143.888195 
L 151.597745 144.646051 
L 153.71079 145.270723 
L 156.22003 145.766024 
L 159.257531 146.123874 
L 163.351555 146.361463 
L 169.822754 146.483896 
L 171.671667 146.495458 
L 171.671667 146.495458 
" clip-path="url(#p7c866ee528)" style="fill: none; stroke: #800080; stroke-width: 1.5; stroke-linecap: square"/>
   </g>
   <g id="patch_3">
    <path d="M 29.81375 153.385366 
L 29.81375 7.2 
" style="fill: none; stroke: #000000; stroke-width: 0.8; stroke-linejoin: miter; stroke-linecap: square"/>
   </g>
   <g id="patch_4">
    <path d="M 178.426806 153.385366 
L 178.426806 7.2 
" style="fill: none; stroke: #000000; stroke-width: 0.8; stroke-linejoin: miter; stroke-linecap: square"/>
   </g>
   <g id="patch_5">
    <path d="M 29.81375 153.385366 
L 178.426806 153.385366 
" style="fill: none; stroke: #000000; stroke-width: 0.8; stroke-linejoin: miter; stroke-linecap: square"/>
   </g>
   <g id="patch_6">
    <path d="M 29.81375 7.2 
L 178.426806 7.2 
" style="fill: none; stroke: #000000; stroke-width: 0.8; stroke-linejoin: miter; stroke-linecap: square"/>
   </g>
  </g>
  <g id="axes_2">
   <g id="patch_7">
    <path d="M 185.857459 153.385366 
L 334.470516 153.385366 
L 334.470516 7.2 
L 185.857459 7.2 
z
" style="fill: #ffffff"/>
   </g>
   <g id="matplotlib.axis_3">
    <g id="xtick_4">
     <g id="line2d_12">
      <g>
       <use xlink:href="#mabab97ce39" x="192.612598" y="153.385366" style="stroke: #000000; stroke-width: 0.8"/>
      </g>
     </g>
    </g>
    <g id="xtick_5">
     <g id="line2d_13">
      <g>
       <use xlink:href="#mabab97ce39" x="258.645237" y="153.385366" style="stroke: #000000; stroke-width: 0.8"/>
      </g>
     </g>
    </g>
    <g id="xtick_6">
     <g id="line2d_14">
      <g>
       <use xlink:href="#mabab97ce39" x="324.677875" y="153.385366" style="stroke: #000000; stroke-width: 0.8"/>
      </g>
     </g>
    </g>
   </g>
   <g id="matplotlib.axis_4">
    <g id="ytick_7">
     <g id="line2d_15">
      <g>
       <use xlink:href="#me0bfc6d97a" x="185.857459" y="140.281016" style="stroke: #000000; stroke-width: 0.8"/>
      </g>
     </g>
    </g>
    <g id="ytick_8">
     <g id="line2d_16">
      <g>
       <use xlink:href="#me0bfc6d97a" x="185.857459" y="113.74643" style="stroke: #000000; stroke-width: 0.8"/>
      </g>
     </g>
    </g>
    <g id="ytick_9">
     <g id="line2d_17">
      <g>
       <use xlink:href="#me0bfc6d97a" x="185.857459" y="87.211844" style="stroke: #000000; stroke-width: 0.8"/>
      </g>
     </g>
    </g>
    <g id="ytick_10">
     <g id="line2d_18">
      <g>
       <use xlink:href="#me0bfc6d97a" x="185.857459" y="60.677257" style="stroke: #000000; stroke-width: 0.8"/>
      </g>
     </g>
    </g>
    <g id="ytick_11">
     <g id="line2d_19">
      <g>
       <use xlink:href="#me0bfc6d97a" x="185.857459" y="34.142671" style="stroke: #000000; stroke-width: 0.8"/>
      </g>
     </g>
    </g>
    <g id="ytick_12">
     <g id="line2d_20">
      <g>
       <use xlink:href="#me0bfc6d97a" x="185.857459" y="7.608085" style="stroke: #000000; stroke-width: 0.8"/>
      </g>
     </g>
    </g>
   </g>
   <g id="line2d_21">
    <path d="M 192.612598 146.725494 
L 196.310426 146.6339 
L 196.970752 146.415855 
L 197.499013 145.965157 
L 197.895209 145.346957 
L 198.42347 144.016069 
L 199.083797 141.517725 
L 200.536515 135.542478 
L 201.064776 134.333044 
L 201.593037 133.714272 
L 202.121298 133.464948 
L 203.045755 133.366608 
L 204.894669 133.427915 
L 205.42293 133.629015 
L 205.819126 133.985164 
L 206.215322 134.627768 
L 206.743583 136.057476 
L 207.403909 138.695252 
L 208.592497 143.689185 
L 209.120758 145.131066 
L 209.649019 145.98988 
L 210.17728 146.423018 
L 210.837606 146.635991 
L 212.026194 146.714151 
L 217.044674 146.67042 
L 228.666419 146.601599 
L 229.19468 146.407074 
L 229.590876 145.995218 
L 229.987072 145.072992 
L 230.383267 143.193419 
L 230.779463 139.706595 
L 231.175659 133.826086 
L 231.571855 124.826963 
L 232.100116 107.470223 
L 233.156638 61.60991 
L 233.816965 36.99517 
L 234.345226 24.417027 
L 234.741422 19.015688 
L 235.137617 16.119114 
L 235.533813 14.759037 
L 235.930009 14.192392 
L 236.45827 13.940857 
L 237.250662 13.892877 
L 237.778923 14.049241 
L 238.043053 14.289328 
L 238.307184 14.762549 
L 238.571315 15.630583 
L 238.835445 17.118501 
L 239.231641 21.134137 
L 239.627837 28.182782 
L 240.156098 43.414652 
L 240.816424 70.563597 
L 241.872947 115.119083 
L 242.401208 130.106919 
L 242.929469 139.137616 
L 243.325665 142.880282 
L 243.72186 144.916136 
L 244.118056 145.925989 
L 244.514252 146.385224 
L 245.042513 146.6135 
L 246.099035 146.707532 
L 250.325124 146.725364 
L 255.739801 146.622268 
L 256.268062 146.441796 
L 256.664258 146.062636 
L 257.060453 145.210666 
L 257.456649 143.463378 
L 257.852845 140.197711 
L 258.249041 134.644523 
L 258.645237 126.068987 
L 259.173498 109.329146 
L 260.097955 69.773897 
L 260.890346 38.769983 
L 261.418608 25.472959 
L 261.814803 19.591418 
L 262.210999 16.356594 
L 262.607195 14.80932 
L 263.003391 14.168281 
L 263.399587 13.938841 
L 264.191978 13.849077 
L 265.908827 13.902089 
L 266.305023 14.056884 
L 266.569153 14.310121 
L 266.833284 14.801679 
L 267.097414 15.693711 
L 267.361545 17.209107 
L 267.757741 21.25928 
L 268.153937 28.306041 
L 268.682198 43.42985 
L 269.342524 70.302143 
L 270.531112 118.974987 
L 271.059373 132.520225 
L 271.587634 140.411154 
L 271.98383 143.588074 
L 272.380026 145.27457 
L 272.776221 146.088969 
L 273.172417 146.446576 
L 273.700678 146.612301 
L 274.889266 146.656574 
L 276.077853 146.554701 
L 276.606114 146.336061 
L 277.00231 145.992387 
L 277.398506 145.406961 
L 277.926767 144.128316 
L 278.587094 141.689991 
L 280.039812 135.684689 
L 280.568073 134.422883 
L 281.096334 133.762447 
L 281.624595 133.490121 
L 282.416987 133.383467 
L 285.322423 133.160641 
L 285.718619 132.768878 
L 285.982749 132.183118 
L 286.24688 131.137484 
L 286.643075 128.187793 
L 287.039271 122.764274 
L 287.435467 114.065793 
L 287.963728 96.985463 
L 289.812642 28.443814 
L 290.340903 19.740617 
L 290.737099 16.459562 
L 291.133295 14.890062 
L 291.529491 14.232248 
L 291.925687 13.985173 
L 292.586013 13.882407 
L 293.246339 13.959499 
L 293.642535 14.217619 
L 293.906666 14.621849 
L 294.170796 15.373653 
L 294.434927 16.680384 
L 294.831123 20.271819 
L 295.227318 26.710841 
L 295.623514 36.777443 
L 296.151775 55.887978 
L 297.868624 124.870453 
L 298.396885 136.132817 
L 298.793081 141.108629 
L 299.189277 143.960425 
L 299.585473 145.448184 
L 299.981668 146.157063 
L 300.377864 146.467739 
L 301.038191 146.633976 
L 302.490909 146.663243 
L 303.415366 146.49495 
L 303.943627 146.163855 
L 304.339823 145.686859 
L 304.868084 144.60209 
L 305.396345 142.914194 
L 306.320802 138.934375 
L 307.113193 135.819476 
L 307.641455 134.484855 
L 308.169716 133.762339 
L 308.697977 133.454162 
L 309.490368 133.333049 
L 312.263739 133.334171 
L 313.188196 133.458507 
L 313.716457 133.767476 
L 314.112653 134.262348 
L 314.508849 135.08661 
L 315.03711 136.768843 
L 315.961567 140.775913 
L 316.753959 143.878623 
L 317.28222 145.243603 
L 317.810481 146.042372 
L 318.338742 146.438546 
L 318.999068 146.630263 
L 320.319721 146.704194 
L 327.715377 146.724988 
L 327.715377 146.724988 
" clip-path="url(#p8a71d987e0)" style="fill: none; stroke: #90ee90; stroke-width: 1.5; stroke-linecap: square"/>
   </g>
   <g id="line2d_22">
    <path d="M 192.612598 141.609093 
L 196.838687 143.174032 
L 200.272384 144.21424 
L 203.574016 144.982232 
L 206.875648 145.525865 
L 210.441411 145.882127 
L 214.007173 146.012427 
L 217.308805 145.910616 
L 220.082176 145.606827 
L 222.459351 145.122781 
L 224.44033 144.503243 
L 226.289244 143.692634 
L 228.006092 142.68744 
L 229.590876 141.497046 
L 231.175659 140.008259 
L 232.628377 138.341233 
L 234.081095 136.34782 
L 235.533813 133.993812 
L 237.118597 130.979165 
L 238.70338 127.468893 
L 240.420228 123.086376 
L 242.269142 117.692712 
L 244.250121 111.179103 
L 246.495231 103.004575 
L 249.664798 90.504732 
L 254.287083 72.271321 
L 256.268062 65.325235 
L 257.852845 60.473937 
L 259.305563 56.723969 
L 260.494151 54.228326 
L 261.550673 52.484828 
L 262.47513 51.348098 
L 263.267521 50.673462 
L 264.059913 50.281662 
L 264.720239 50.173623 
L 265.380566 50.264782 
L 266.040892 50.554386 
L 266.833284 51.160949 
L 267.625676 52.04453 
L 268.550132 53.414342 
L 269.606655 55.405471 
L 270.795242 58.149437 
L 272.115895 61.759391 
L 273.700678 66.751901 
L 275.681657 73.763811 
L 278.851224 85.951362 
L 282.945248 101.526018 
L 285.190357 109.203555 
L 287.171337 115.192826 
L 288.888185 119.705139 
L 290.472969 123.285973 
L 292.057752 126.309227 
L 293.51047 128.610483 
L 294.963188 130.492723 
L 296.415906 131.994548 
L 297.868624 133.160667 
L 299.321342 134.039467 
L 300.906125 134.729051 
L 302.622974 135.231309 
L 304.736018 135.610357 
L 308.301781 135.976999 
L 312.395805 136.464264 
L 315.301241 137.048824 
L 318.206677 137.872129 
L 321.508309 139.049692 
L 327.715377 141.55654 
L 327.715377 141.55654 
" clip-path="url(#p8a71d987e0)" style="fill: none; stroke: #008000; stroke-width: 1.5; stroke-linecap: square"/>
   </g>
   <g id="patch_8">
    <path d="M 185.857459 153.385366 
L 185.857459 7.2 
" style="fill: none; stroke: #000000; stroke-width: 0.8; stroke-linejoin: miter; stroke-linecap: square"/>
   </g>
   <g id="patch_9">
    <path d="M 334.470516 153.385366 
L 334.470516 7.2 
" style="fill: none; stroke: #000000; stroke-width: 0.8; stroke-linejoin: miter; stroke-linecap: square"/>
   </g>
   <g id="patch_10">
    <path d="M 185.857459 153.385366 
L 334.470516 153.385366 
" style="fill: none; stroke: #000000; stroke-width: 0.8; stroke-linejoin: miter; stroke-linecap: square"/>
   </g>
   <g id="patch_11">
    <path d="M 185.857459 7.2 
L 334.470516 7.2 
" style="fill: none; stroke: #000000; stroke-width: 0.8; stroke-linejoin: miter; stroke-linecap: square"/>
   </g>
  </g>
  <g id="axes_3">
   <g id="patch_12">
    <path d="M 29.81375 306.88 
L 178.426806 306.88 
L 178.426806 160.694634 
L 29.81375 160.694634 
z
" style="fill: #ffffff"/>
   </g>
   <g id="matplotlib.axis_5">
    <g id="xtick_7">
     <g id="line2d_23">
      <g>
       <use xlink:href="#mabab97ce39" x="36.568889" y="306.88" style="stroke: #000000; stroke-width: 0.8"/>
      </g>
     </g>
     <g id="text_2">
      <!-- 0 -->
      <g transform="translate(32.394201 322.998125) scale(0.12 -0.12)">
       <defs>
        <path id="DejaVuSerif-Bold-30" d="M 2228 275 
Q 2603 275 2742 615 
Q 2881 956 2881 2328 
Q 2881 3691 2742 4037 
Q 2603 4384 2228 4384 
Q 1853 4384 1714 4043 
Q 1575 3703 1575 2328 
Q 1575 956 1714 615 
Q 1853 275 2228 275 
z
M 2228 -91 
Q 1294 -91 797 532 
Q 300 1156 300 2328 
Q 300 3500 797 4125 
Q 1294 4750 2228 4750 
Q 3159 4750 3656 4125 
Q 4153 3500 4153 2328 
Q 4153 1156 3656 532 
Q 3159 -91 2228 -91 
z
" transform="scale(0.015625)"/>
       </defs>
       <use xlink:href="#DejaVuSerif-Bold-30"/>
      </g>
     </g>
    </g>
    <g id="xtick_8">
     <g id="line2d_24">
      <g>
       <use xlink:href="#mabab97ce39" x="70.3776" y="306.88" style="stroke: #000000; stroke-width: 0.8"/>
      </g>
     </g>
     <g id="text_3">
      <!-- 49 -->
      <g transform="translate(62.028225 322.998125) scale(0.12 -0.12)">
       <defs>
        <path id="DejaVuSerif-Bold-34" d="M 4084 0 
L 1516 0 
L 1516 378 
L 2209 378 
L 2209 1228 
L 263 1228 
L 263 1588 
L 2216 4750 
L 3391 4750 
L 3391 1631 
L 4191 1631 
L 4191 1228 
L 3391 1228 
L 3391 378 
L 4084 378 
L 4084 0 
z
M 2209 1631 
L 2209 3897 
L 819 1631 
L 2209 1631 
z
" transform="scale(0.015625)"/>
        <path id="DejaVuSerif-Bold-39" d="M 2181 4384 
Q 1859 4384 1723 4111 
Q 1588 3838 1588 3163 
Q 1588 2488 1723 2214 
Q 1859 1941 2181 1941 
Q 2503 1941 2640 2214 
Q 2778 2488 2778 3163 
Q 2778 3838 2640 4111 
Q 2503 4384 2181 4384 
z
M 2878 1900 
Q 2672 1734 2420 1651 
Q 2169 1569 1875 1569 
Q 1163 1569 755 1986 
Q 347 2403 347 3138 
Q 347 3913 803 4331 
Q 1259 4750 2106 4750 
Q 3063 4750 3556 4172 
Q 4050 3594 4050 2478 
Q 4050 1206 3503 557 
Q 2956 -91 1881 -91 
Q 1600 -91 1278 -44 
Q 956 3 588 97 
L 588 922 
L 966 922 
Q 1044 603 1261 439 
Q 1478 275 1825 275 
Q 2375 275 2625 658 
Q 2875 1041 2878 1900 
z
" transform="scale(0.015625)"/>
       </defs>
       <use xlink:href="#DejaVuSerif-Bold-34"/>
       <use xlink:href="#DejaVuSerif-Bold-39" transform="translate(69.580078 0)"/>
      </g>
     </g>
    </g>
    <g id="xtick_9">
     <g id="line2d_25">
      <g>
       <use xlink:href="#mabab97ce39" x="104.186311" y="306.88" style="stroke: #000000; stroke-width: 0.8"/>
      </g>
     </g>
     <g id="text_4">
      <!-- 99 -->
      <g transform="translate(95.836936 322.998125) scale(0.12 -0.12)">
       <use xlink:href="#DejaVuSerif-Bold-39"/>
       <use xlink:href="#DejaVuSerif-Bold-39" transform="translate(69.580078 0)"/>
      </g>
     </g>
    </g>
    <g id="xtick_10">
     <g id="line2d_26">
      <g>
       <use xlink:href="#mabab97ce39" x="137.995022" y="306.88" style="stroke: #000000; stroke-width: 0.8"/>
      </g>
     </g>
     <g id="text_5">
      <!-- 149 -->
      <g transform="translate(125.470959 322.998125) scale(0.12 -0.12)">
       <defs>
        <path id="DejaVuSerif-Bold-31" d="M 878 0 
L 878 378 
L 1753 378 
L 1753 4153 
L 781 3578 
L 781 4044 
L 1953 4750 
L 2938 4750 
L 2938 378 
L 3816 378 
L 3816 0 
L 878 0 
z
" transform="scale(0.015625)"/>
       </defs>
       <use xlink:href="#DejaVuSerif-Bold-31"/>
       <use xlink:href="#DejaVuSerif-Bold-34" transform="translate(69.580078 0)"/>
       <use xlink:href="#DejaVuSerif-Bold-39" transform="translate(139.160156 0)"/>
      </g>
     </g>
    </g>
    <g id="xtick_11">
     <g id="line2d_27">
      <g>
       <use xlink:href="#mabab97ce39" x="171.803733" y="306.88" style="stroke: #000000; stroke-width: 0.8"/>
      </g>
     </g>
     <g id="text_6">
      <!-- 199 -->
      <g transform="translate(159.27967 322.998125) scale(0.12 -0.12)">
       <use xlink:href="#DejaVuSerif-Bold-31"/>
       <use xlink:href="#DejaVuSerif-Bold-39" transform="translate(69.580078 0)"/>
       <use xlink:href="#DejaVuSerif-Bold-39" transform="translate(139.160156 0)"/>
      </g>
     </g>
    </g>
    <g id="text_7">
     <!-- Time (ns) -->
     <g transform="translate(75.426216 338.611875) scale(0.12 -0.12)">
      <defs>
       <path id="DejaVuSerif-54" d="M 1222 0 
L 1222 331 
L 1819 331 
L 1819 4294 
L 447 4294 
L 447 3566 
L 63 3566 
L 63 4666 
L 4206 4666 
L 4206 3566 
L 3822 3566 
L 3822 4294 
L 2450 4294 
L 2450 331 
L 3047 331 
L 3047 0 
L 1222 0 
z
" transform="scale(0.015625)"/>
       <path id="DejaVuSerif-6d" d="M 3316 2675 
Q 3481 3041 3739 3227 
Q 3997 3413 4341 3413 
Q 4863 3413 5119 3089 
Q 5375 2766 5375 2113 
L 5375 331 
L 5894 331 
L 5894 0 
L 4300 0 
L 4300 331 
L 4800 331 
L 4800 2047 
Q 4800 2556 4650 2772 
Q 4500 2988 4153 2988 
Q 3769 2988 3567 2697 
Q 3366 2406 3366 1850 
L 3366 331 
L 3866 331 
L 3866 0 
L 2291 0 
L 2291 331 
L 2791 331 
L 2791 2069 
Q 2791 2566 2641 2777 
Q 2491 2988 2144 2988 
Q 1759 2988 1557 2697 
Q 1356 2406 1356 1850 
L 1356 331 
L 1856 331 
L 1856 0 
L 263 0 
L 263 331 
L 781 331 
L 781 2994 
L 231 2994 
L 231 3322 
L 1356 3322 
L 1356 2731 
Q 1516 3063 1762 3238 
Q 2009 3413 2322 3413 
Q 2709 3413 2968 3220 
Q 3228 3028 3316 2675 
z
" transform="scale(0.015625)"/>
       <path id="DejaVuSerif-20" transform="scale(0.015625)"/>
       <path id="DejaVuSerif-28" d="M 2041 -997 
Q 1281 -656 893 83 
Q 506 822 506 1931 
Q 506 3044 893 3783 
Q 1281 4522 2041 4863 
L 2041 4556 
Q 1559 4225 1350 3623 
Q 1141 3022 1141 1931 
Q 1141 844 1350 242 
Q 1559 -359 2041 -691 
L 2041 -997 
z
" transform="scale(0.015625)"/>
       <path id="DejaVuSerif-29" d="M 453 -997 
L 453 -691 
Q 934 -359 1145 242 
Q 1356 844 1356 1931 
Q 1356 3022 1145 3623 
Q 934 4225 453 4556 
L 453 4863 
Q 1216 4522 1603 3783 
Q 1991 3044 1991 1931 
Q 1991 822 1603 83 
Q 1216 -656 453 -997 
z
" transform="scale(0.015625)"/>
      </defs>
      <use xlink:href="#DejaVuSerif-54"/>
      <use xlink:href="#DejaVuSerif-69" transform="translate(66.699219 0)"/>
      <use xlink:href="#DejaVuSerif-6d" transform="translate(98.681641 0)"/>
      <use xlink:href="#DejaVuSerif-65" transform="translate(193.505859 0)"/>
      <use xlink:href="#DejaVuSerif-20" transform="translate(252.685547 0)"/>
      <use xlink:href="#DejaVuSerif-28" transform="translate(284.472656 0)"/>
      <use xlink:href="#DejaVuSerif-6e" transform="translate(323.486328 0)"/>
      <use xlink:href="#DejaVuSerif-73" transform="translate(387.890625 0)"/>
      <use xlink:href="#DejaVuSerif-29" transform="translate(439.208984 0)"/>
     </g>
    </g>
   </g>
   <g id="matplotlib.axis_6">
    <g id="ytick_13">
     <g id="line2d_28">
      <g>
       <use xlink:href="#me0bfc6d97a" x="29.81375" y="295.407615" style="stroke: #000000; stroke-width: 0.8"/>
      </g>
     </g>
    </g>
    <g id="ytick_14">
     <g id="line2d_29">
      <g>
       <use xlink:href="#me0bfc6d97a" x="29.81375" y="256.747146" style="stroke: #000000; stroke-width: 0.8"/>
      </g>
     </g>
    </g>
    <g id="ytick_15">
     <g id="line2d_30">
      <g>
       <use xlink:href="#me0bfc6d97a" x="29.81375" y="218.086678" style="stroke: #000000; stroke-width: 0.8"/>
      </g>
     </g>
    </g>
    <g id="ytick_16">
     <g id="line2d_31">
      <g>
       <use xlink:href="#me0bfc6d97a" x="29.81375" y="179.426209" style="stroke: #000000; stroke-width: 0.8"/>
      </g>
     </g>
    </g>
    <g id="text_8">
     <!-- Intensity -->
     <g transform="translate(16.1475 260.64763) rotate(-90) scale(0.12 -0.12)">
      <use xlink:href="#DejaVuSerif-49"/>
      <use xlink:href="#DejaVuSerif-6e" transform="translate(39.501953 0)"/>
      <use xlink:href="#DejaVuSerif-74" transform="translate(103.90625 0)"/>
      <use xlink:href="#DejaVuSerif-65" transform="translate(144.091797 0)"/>
      <use xlink:href="#DejaVuSerif-6e" transform="translate(203.271484 0)"/>
      <use xlink:href="#DejaVuSerif-73" transform="translate(267.675781 0)"/>
      <use xlink:href="#DejaVuSerif-69" transform="translate(318.994141 0)"/>
      <use xlink:href="#DejaVuSerif-74" transform="translate(350.976562 0)"/>
      <use xlink:href="#DejaVuSerif-79" transform="translate(391.162109 0)"/>
     </g>
    </g>
   </g>
   <g id="line2d_32">
    <path d="M 36.568889 300.20277 
L 48.454764 300.228709 
L 62.981944 300.181838 
L 72.358579 300.144722 
L 73.150971 299.980193 
L 73.547167 299.67933 
L 73.943362 299.006158 
L 74.339558 297.635739 
L 74.735754 295.095369 
L 75.13195 290.812669 
L 75.528146 284.259612 
L 76.056407 271.620533 
L 77.112929 238.219091 
L 77.773255 220.285544 
L 78.301517 211.117435 
L 78.697712 207.177692 
L 79.093908 205.062435 
L 79.490104 204.066865 
L 79.8863 203.65008 
L 80.414561 203.463132 
L 81.339018 203.437568 
L 81.867279 203.60725 
L 82.263475 204.04081 
L 82.527605 204.648848 
L 82.791736 205.683682 
L 83.187932 208.441483 
L 83.584128 213.176923 
L 84.112389 222.953864 
L 85.433041 250.141216 
L 85.697172 251.925201 
L 85.829237 252.033421 
L 85.961303 251.609414 
L 86.225433 249.231946 
L 86.621629 242.471006 
L 88.206412 210.180542 
L 88.602608 206.47556 
L 88.998804 204.457671 
L 89.395 203.503229 
L 89.791196 203.106261 
L 90.319457 202.934154 
L 91.243914 202.923668 
L 91.772175 203.10257 
L 92.168371 203.554059 
L 92.432501 204.189831 
L 92.696632 205.279087 
L 93.092828 208.219002 
L 93.489023 213.38085 
L 94.017284 224.53866 
L 94.677611 244.430732 
L 95.734133 277.07993 
L 96.262394 288.060499 
L 96.790655 294.673184 
L 97.186851 297.410882 
L 97.583047 298.897552 
L 97.979243 299.632691 
L 98.375439 299.964817 
L 98.9037 300.125147 
L 99.828157 300.129399 
L 100.356418 299.960238 
L 100.752614 299.600347 
L 101.148809 298.808078 
L 101.545005 297.226888 
L 101.941201 294.358657 
L 102.337397 289.63171 
L 102.865658 279.648129 
L 103.525984 261.319758 
L 104.846637 221.595108 
L 105.374898 211.909746 
L 105.771094 207.625272 
L 106.16729 205.267399 
L 106.563486 204.137195 
L 106.959682 203.665799 
L 107.487943 203.467122 
L 108.67653 203.408766 
L 111.185771 203.403706 
L 111.581966 203.818904 
L 111.978162 204.706504 
L 112.506423 206.643958 
L 113.16675 209.192465 
L 113.43088 209.743952 
L 113.695011 209.839196 
L 113.959141 209.454888 
L 114.355337 208.147588 
L 115.411859 203.993739 
L 115.808055 203.207808 
L 116.204251 202.858713 
L 116.732512 202.761069 
L 120.034144 202.943614 
L 120.43034 203.18749 
L 120.69447 203.551247 
L 120.958601 204.208254 
L 121.222732 205.321634 
L 121.618927 208.292845 
L 122.015123 213.458548 
L 122.543384 224.542051 
L 123.203711 244.234176 
L 124.392298 279.904396 
L 124.920559 289.832423 
L 125.44882 295.616795 
L 125.845016 297.945891 
L 126.241212 299.182224 
L 126.637408 299.778484 
L 127.033604 300.038242 
L 127.69393 300.158653 
L 128.618387 300.069237 
L 129.146648 299.778323 
L 129.542844 299.222139 
L 129.93904 298.065592 
L 130.335236 295.866633 
L 130.731432 292.060435 
L 131.127627 286.080102 
L 131.655888 274.1787 
L 132.44828 249.676258 
L 133.372737 222.199341 
L 133.900998 212.20599 
L 134.297194 207.787383 
L 134.69339 205.365234 
L 135.089586 204.20912 
L 135.485782 203.725259 
L 136.014043 203.514403 
L 136.9385 203.476042 
L 137.466761 203.610728 
L 137.862957 203.974532 
L 138.127087 204.498342 
L 138.391218 205.406793 
L 138.787413 207.88288 
L 139.183609 212.243579 
L 139.71187 221.533811 
L 141.164588 251.062184 
L 141.428719 252.442204 
L 141.560784 252.336396 
L 141.824915 250.546163 
L 142.221111 244.414058 
L 144.070025 208.157716 
L 144.46622 205.30243 
L 144.862416 203.85897 
L 145.258612 203.226297 
L 145.654808 202.982326 
L 146.315134 202.877553 
L 147.107526 202.931089 
L 147.503722 203.118694 
L 147.767852 203.413281 
L 148.031983 203.962245 
L 148.296113 204.91768 
L 148.692309 207.546264 
L 149.088505 212.261942 
L 149.484701 219.636618 
L 150.012962 233.639279 
L 151.729811 284.190887 
L 152.258072 292.444815 
L 152.654268 296.091628 
L 153.050463 298.181772 
L 153.446659 299.272172 
L 153.842855 299.791794 
L 154.371116 300.061067 
L 155.295573 300.166352 
L 158.597205 300.171475 
L 164.936338 300.201054 
L 171.671667 300.201285 
L 171.671667 300.201285 
" clip-path="url(#p09478e199a)" style="fill: none; stroke: #add8e6; stroke-width: 1.5; stroke-linecap: square"/>
   </g>
   <g id="line2d_33">
    <path d="M 36.568889 299.854444 
L 45.153132 299.926001 
L 56.642811 299.825367 
L 61.397161 299.58243 
L 64.566728 299.215801 
L 67.075968 298.713522 
L 69.189012 298.07051 
L 71.037926 297.281299 
L 72.754775 296.303835 
L 74.339558 295.142725 
L 75.792276 293.81693 
L 77.244994 292.199052 
L 78.697712 290.246536 
L 80.15043 287.916401 
L 81.603148 285.166885 
L 83.055866 281.959406 
L 84.64065 277.899261 
L 86.225433 273.22255 
L 87.942282 267.440837 
L 89.791196 260.387419 
L 91.772175 251.929929 
L 94.14935 240.717148 
L 97.318916 224.525857 
L 102.469462 198.092427 
L 104.582507 188.447888 
L 106.299355 181.608479 
L 107.752073 176.703562 
L 108.940661 173.383353 
L 109.997183 171.005237 
L 110.92164 169.393778 
L 111.714032 168.374956 
L 112.506423 167.699155 
L 113.16675 167.401907 
L 113.827076 167.348198 
L 114.487402 167.538324 
L 115.147729 167.971253 
L 115.94012 168.807872 
L 116.732512 169.984169 
L 117.656969 171.773531 
L 118.713491 174.345108 
L 119.902079 177.867476 
L 121.222732 182.492607 
L 122.807515 188.90193 
L 124.656429 197.333234 
L 127.165669 209.886956 
L 134.561325 247.579581 
L 136.806434 257.566724 
L 138.787413 265.424224 
L 140.636327 271.879185 
L 142.353176 277.098941 
L 143.937959 281.269599 
L 145.522743 284.848898 
L 147.107526 287.878499 
L 148.692309 290.408112 
L 150.145027 292.334017 
L 151.729811 294.058402 
L 153.314594 295.44331 
L 154.899377 296.541105 
L 156.616226 297.462264 
L 158.46514 298.203414 
L 160.578184 298.804941 
L 163.087424 299.272721 
L 166.124926 299.60217 
L 170.351015 299.81712 
L 171.671667 299.851562 
L 171.671667 299.851562 
" clip-path="url(#p09478e199a)" style="fill: none; stroke: #0000ff; stroke-width: 1.5; stroke-linecap: square"/>
   </g>
   <g id="patch_13">
    <path d="M 29.81375 306.88 
L 29.81375 160.694634 
" style="fill: none; stroke: #000000; stroke-width: 0.8; stroke-linejoin: miter; stroke-linecap: square"/>
   </g>
   <g id="patch_14">
    <path d="M 178.426806 306.88 
L 178.426806 160.694634 
" style="fill: none; stroke: #000000; stroke-width: 0.8; stroke-linejoin: miter; stroke-linecap: square"/>
   </g>
   <g id="patch_15">
    <path d="M 29.81375 306.88 
L 178.426806 306.88 
" style="fill: none; stroke: #000000; stroke-width: 0.8; stroke-linejoin: miter; stroke-linecap: square"/>
   </g>
   <g id="patch_16">
    <path d="M 29.81375 160.694634 
L 178.426806 160.694634 
" style="fill: none; stroke: #000000; stroke-width: 0.8; stroke-linejoin: miter; stroke-linecap: square"/>
   </g>
  </g>
  <g id="axes_4">
   <g id="patch_17">
    <path d="M 185.857459 306.88 
L 334.470516 306.88 
L 334.470516 160.694634 
L 185.857459 160.694634 
z
" style="fill: #ffffff"/>
   </g>
   <g id="matplotlib.axis_7">
    <g id="xtick_12">
     <g id="line2d_34">
      <g>
       <use xlink:href="#mabab97ce39" x="192.612598" y="306.88" style="stroke: #000000; stroke-width: 0.8"/>
      </g>
     </g>
     <g id="text_9">
      <!-- 0 -->
      <g transform="translate(188.437911 322.998125) scale(0.12 -0.12)">
       <use xlink:href="#DejaVuSerif-Bold-30"/>
      </g>
     </g>
    </g>
    <g id="xtick_13">
     <g id="line2d_35">
      <g>
       <use xlink:href="#mabab97ce39" x="226.421309" y="306.88" style="stroke: #000000; stroke-width: 0.8"/>
      </g>
     </g>
     <g id="text_10">
      <!-- 49 -->
      <g transform="translate(218.071934 322.998125) scale(0.12 -0.12)">
       <use xlink:href="#DejaVuSerif-Bold-34"/>
       <use xlink:href="#DejaVuSerif-Bold-39" transform="translate(69.580078 0)"/>
      </g>
     </g>
    </g>
    <g id="xtick_14">
     <g id="line2d_36">
      <g>
       <use xlink:href="#mabab97ce39" x="260.23002" y="306.88" style="stroke: #000000; stroke-width: 0.8"/>
      </g>
     </g>
     <g id="text_11">
      <!-- 99 -->
      <g transform="translate(251.880645 322.998125) scale(0.12 -0.12)">
       <use xlink:href="#DejaVuSerif-Bold-39"/>
       <use xlink:href="#DejaVuSerif-Bold-39" transform="translate(69.580078 0)"/>
      </g>
     </g>
    </g>
    <g id="xtick_15">
     <g id="line2d_37">
      <g>
       <use xlink:href="#mabab97ce39" x="294.038731" y="306.88" style="stroke: #000000; stroke-width: 0.8"/>
      </g>
     </g>
     <g id="text_12">
      <!-- 149 -->
      <g transform="translate(281.514668 322.998125) scale(0.12 -0.12)">
       <use xlink:href="#DejaVuSerif-Bold-31"/>
       <use xlink:href="#DejaVuSerif-Bold-34" transform="translate(69.580078 0)"/>
       <use xlink:href="#DejaVuSerif-Bold-39" transform="translate(139.160156 0)"/>
      </g>
     </g>
    </g>
    <g id="xtick_16">
     <g id="line2d_38">
      <g>
       <use xlink:href="#mabab97ce39" x="327.847442" y="306.88" style="stroke: #000000; stroke-width: 0.8"/>
      </g>
     </g>
     <g id="text_13">
      <!-- 199 -->
      <g transform="translate(315.323379 322.998125) scale(0.12 -0.12)">
       <use xlink:href="#DejaVuSerif-Bold-31"/>
       <use xlink:href="#DejaVuSerif-Bold-39" transform="translate(69.580078 0)"/>
       <use xlink:href="#DejaVuSerif-Bold-39" transform="translate(139.160156 0)"/>
      </g>
     </g>
    </g>
    <g id="text_14">
     <!-- Time (ns) -->
     <g transform="translate(231.469925 338.611875) scale(0.12 -0.12)">
      <use xlink:href="#DejaVuSerif-54"/>
      <use xlink:href="#DejaVuSerif-69" transform="translate(66.699219 0)"/>
      <use xlink:href="#DejaVuSerif-6d" transform="translate(98.681641 0)"/>
      <use xlink:href="#DejaVuSerif-65" transform="translate(193.505859 0)"/>
      <use xlink:href="#DejaVuSerif-20" transform="translate(252.685547 0)"/>
      <use xlink:href="#DejaVuSerif-28" transform="translate(284.472656 0)"/>
      <use xlink:href="#DejaVuSerif-6e" transform="translate(323.486328 0)"/>
      <use xlink:href="#DejaVuSerif-73" transform="translate(387.890625 0)"/>
      <use xlink:href="#DejaVuSerif-29" transform="translate(439.208984 0)"/>
     </g>
    </g>
   </g>
   <g id="matplotlib.axis_8">
    <g id="ytick_17">
     <g id="line2d_39">
      <g>
       <use xlink:href="#me0bfc6d97a" x="185.857459" y="293.631182" style="stroke: #000000; stroke-width: 0.8"/>
      </g>
     </g>
    </g>
    <g id="ytick_18">
     <g id="line2d_40">
      <g>
       <use xlink:href="#me0bfc6d97a" x="185.857459" y="267.257568" style="stroke: #000000; stroke-width: 0.8"/>
      </g>
     </g>
    </g>
    <g id="ytick_19">
     <g id="line2d_41">
      <g>
       <use xlink:href="#me0bfc6d97a" x="185.857459" y="240.883955" style="stroke: #000000; stroke-width: 0.8"/>
      </g>
     </g>
    </g>
    <g id="ytick_20">
     <g id="line2d_42">
      <g>
       <use xlink:href="#me0bfc6d97a" x="185.857459" y="214.510341" style="stroke: #000000; stroke-width: 0.8"/>
      </g>
     </g>
    </g>
    <g id="ytick_21">
     <g id="line2d_43">
      <g>
       <use xlink:href="#me0bfc6d97a" x="185.857459" y="188.136728" style="stroke: #000000; stroke-width: 0.8"/>
      </g>
     </g>
    </g>
    <g id="ytick_22">
     <g id="line2d_44">
      <g>
       <use xlink:href="#me0bfc6d97a" x="185.857459" y="161.763115" style="stroke: #000000; stroke-width: 0.8"/>
      </g>
     </g>
    </g>
   </g>
   <g id="line2d_45">
    <path d="M 192.612598 300.224787 
L 195.253904 300.143548 
L 195.782165 299.973255 
L 196.178361 299.631095 
L 196.574556 298.863296 
L 196.970752 297.27038 
L 197.366948 294.245853 
L 197.763144 289.015365 
L 198.15934 280.802086 
L 198.687601 264.464133 
L 199.479993 230.838404 
L 200.404449 193.134084 
L 200.932711 179.418562 
L 201.328906 173.351924 
L 201.725102 170.024227 
L 202.121298 168.433995 
L 202.517494 167.767131 
L 202.91369 167.516112 
L 203.574016 167.410691 
L 204.234343 167.48495 
L 204.630538 167.740049 
L 204.894669 168.141605 
L 205.158799 168.890252 
L 205.42293 170.193414 
L 205.819126 173.778893 
L 206.215322 180.211415 
L 206.611518 190.271109 
L 207.139779 209.372082 
L 208.856627 278.333078 
L 209.384888 289.596658 
L 209.781084 294.576096 
L 210.17728 297.43318 
L 210.573476 298.92707 
L 210.969672 299.6421 
L 211.365867 299.958251 
L 212.026194 300.130846 
L 213.610977 300.175878 
L 229.062615 299.937184 
L 229.45881 299.63583 
L 229.855006 298.933101 
L 230.251202 297.449593 
L 230.647398 294.604416 
L 231.043594 289.645897 
L 231.43979 281.80247 
L 231.968051 266.055754 
L 232.760442 233.145622 
L 233.684899 195.311599 
L 234.21316 181.142178 
L 234.609356 174.728951 
L 235.005552 171.132293 
L 235.401748 169.369968 
L 235.797944 168.609636 
L 236.19414 168.314021 
L 236.854466 168.18158 
L 237.514792 168.232936 
L 237.910988 168.443672 
L 238.175119 168.782946 
L 238.439249 169.426538 
L 238.70338 170.566509 
L 239.099576 173.773991 
L 239.495772 179.672979 
L 239.891967 189.115595 
L 240.420228 207.500303 
L 242.269142 280.553605 
L 242.797403 290.910844 
L 243.193599 295.373155 
L 243.589795 297.878169 
L 243.985991 299.159027 
L 244.382187 299.758255 
L 244.910448 300.06428 
L 245.70284 300.179865 
L 248.47621 300.233605 
L 255.739801 300.088388 
L 256.268062 299.915164 
L 256.664258 299.543555 
L 257.060453 298.701983 
L 257.456649 296.970015 
L 257.852845 293.72794 
L 258.249041 288.210894 
L 258.645237 279.688151 
L 259.173498 263.047835 
L 260.097955 223.72112 
L 260.890346 192.891915 
L 261.418608 179.667818 
L 261.814803 173.817574 
L 262.210999 170.599388 
L 262.607195 169.059902 
L 263.003391 168.422461 
L 263.399587 168.195297 
L 264.191978 168.110292 
L 266.040892 168.200216 
L 266.437088 168.424193 
L 266.701219 168.777334 
L 266.965349 169.440971 
L 267.22948 170.606715 
L 267.625676 173.854668 
L 268.021871 179.771495 
L 268.418067 189.175932 
L 268.946328 207.398851 
L 270.795242 280.109819 
L 271.323503 290.603867 
L 271.719699 295.165762 
L 272.115895 297.744657 
L 272.512091 299.06985 
L 272.908287 299.689192 
L 273.304482 299.952335 
L 273.964809 300.07938 
L 275.021331 300.018479 
L 275.549592 299.755539 
L 275.945788 299.215891 
L 276.341984 298.040799 
L 276.73818 295.714223 
L 277.134376 291.526685 
L 277.530571 284.682817 
L 278.058832 270.387029 
L 278.719159 244.568047 
L 280.039812 190.518075 
L 280.568073 177.946936 
L 280.964269 172.549337 
L 281.360464 169.655245 
L 281.75666 168.296582 
L 282.152856 167.730386 
L 282.681117 167.477526 
L 283.473509 167.418051 
L 284.00177 167.546209 
L 284.397966 167.927607 
L 284.662096 168.494097 
L 284.926227 169.495152 
L 285.322423 172.272123 
L 285.718619 177.222403 
L 286.24688 187.772989 
L 287.435467 215.400219 
L 287.699598 217.954304 
L 287.831663 218.339447 
L 287.963728 218.10646 
L 288.227859 215.843567 
L 288.624055 208.682847 
L 290.076773 176.359423 
L 290.472969 172.130001 
L 290.869164 169.852235 
L 291.26536 168.797626 
L 291.661556 168.373169 
L 292.189817 168.199692 
L 292.982209 168.199927 
L 293.51047 168.404964 
L 293.7746 168.694909 
L 294.038731 169.249804 
L 294.302862 170.244442 
L 294.566992 171.915207 
L 294.963188 176.318319 
L 295.359384 183.855074 
L 295.887645 199.708117 
L 296.680037 233.085127 
L 297.604493 270.61149 
L 298.132755 284.831776 
L 298.661016 293.262122 
L 299.057212 296.706309 
L 299.453407 298.556394 
L 299.849603 299.461075 
L 300.245799 299.865143 
L 300.77406 300.05959 
L 301.698517 300.105253 
L 302.358843 299.973129 
L 302.755039 299.691953 
L 303.151235 299.035085 
L 303.547431 297.644004 
L 303.943627 294.962292 
L 304.339823 290.257138 
L 304.736018 282.754823 
L 305.26428 267.525437 
L 305.924606 240.977349 
L 307.113193 192.250092 
L 307.641455 178.960251 
L 308.03765 173.082488 
L 308.433846 169.850054 
L 308.830042 168.303935 
L 309.226238 167.663064 
L 309.622434 167.43318 
L 310.414825 167.342788 
L 312.131674 167.401944 
L 312.52787 167.557257 
L 312.792 167.810191 
L 313.056131 168.300901 
L 313.320261 169.19154 
L 313.584392 170.705004 
L 313.980588 174.751259 
L 314.376784 181.792847 
L 314.905045 196.907923 
L 315.565371 223.767699 
L 316.753959 272.424932 
L 317.28222 285.969856 
L 317.810481 293.864521 
L 318.206677 297.046148 
L 318.602873 298.738303 
L 318.999068 299.558756 
L 319.395264 299.922358 
L 319.923525 300.095387 
L 321.112113 300.154761 
L 327.715377 300.223891 
L 327.715377 300.223891 
" clip-path="url(#p539a2773a6)" style="fill: none; stroke: #ffa500; stroke-width: 1.5; stroke-linecap: square"/>
   </g>
   <g id="line2d_46">
    <path d="M 192.612598 251.262981 
L 195.385969 261.740396 
L 197.631079 269.377131 
L 199.612058 275.329968 
L 201.460972 280.166641 
L 203.17782 284.029492 
L 204.762604 287.074756 
L 206.347387 289.649601 
L 207.93217 291.791413 
L 209.516954 293.542573 
L 211.101737 294.947112 
L 212.68652 296.047841 
L 214.271304 296.884001 
L 215.988152 297.530364 
L 217.705001 297.939801 
L 219.553915 298.142187 
L 221.402829 298.110567 
L 223.251742 297.842795 
L 224.968591 297.367048 
L 226.553374 296.710745 
L 228.138158 295.816714 
L 229.722941 294.649863 
L 231.175659 293.306415 
L 232.628377 291.666895 
L 234.081095 289.697555 
L 235.533813 287.365978 
L 237.118597 284.375472 
L 238.70338 280.890177 
L 240.420228 276.536574 
L 242.269142 271.176792 
L 244.250121 264.702737 
L 246.495231 256.57633 
L 249.532733 244.67617 
L 254.419148 225.50897 
L 256.400127 218.633203 
L 257.98491 213.837049 
L 259.437628 210.130458 
L 260.626216 207.660298 
L 261.682738 205.927943 
L 262.607195 204.78902 
L 263.531652 204.013004 
L 264.324044 203.641084 
L 265.116435 203.540582 
L 265.776762 203.662659 
L 266.569153 204.052012 
L 267.361545 204.699276 
L 268.286002 205.766819 
L 269.342524 207.373309 
L 270.531112 209.627432 
L 271.98383 212.932626 
L 273.700678 217.439454 
L 276.474049 225.461048 
L 279.511551 234.090944 
L 281.228399 238.355253 
L 282.681117 241.394334 
L 283.869705 243.404358 
L 284.926227 244.785244 
L 285.850684 245.65683 
L 286.643075 246.142715 
L 287.435467 246.381482 
L 288.227859 246.370329 
L 289.02025 246.109272 
L 289.812642 245.601143 
L 290.737099 244.703706 
L 291.661556 243.491357 
L 292.718078 241.744143 
L 293.906666 239.359748 
L 295.359384 235.930005 
L 297.208298 230.943409 
L 300.906125 220.093654 
L 303.151235 213.878807 
L 304.736018 210.067338 
L 306.056671 207.412042 
L 307.245259 205.510257 
L 308.301781 204.255529 
L 309.226238 203.520046 
L 310.01863 203.171578 
L 310.811021 203.090745 
L 311.471348 203.230848 
L 312.263739 203.649218 
L 313.056131 204.339466 
L 313.980588 205.483163 
L 314.905045 206.981092 
L 315.961567 209.10716 
L 317.150154 211.991534 
L 318.602873 216.152058 
L 320.319721 221.826557 
L 322.432766 229.64812 
L 325.998528 243.880975 
L 327.715377 250.742946 
L 327.715377 250.742946 
" clip-path="url(#p539a2773a6)" style="fill: none; stroke: #ff0000; stroke-width: 1.5; stroke-linecap: square"/>
   </g>
   <g id="patch_18">
    <path d="M 185.857459 306.88 
L 185.857459 160.694634 
" style="fill: none; stroke: #000000; stroke-width: 0.8; stroke-linejoin: miter; stroke-linecap: square"/>
   </g>
   <g id="patch_19">
    <path d="M 334.470516 306.88 
L 334.470516 160.694634 
" style="fill: none; stroke: #000000; stroke-width: 0.8; stroke-linejoin: miter; stroke-linecap: square"/>
   </g>
   <g id="patch_20">
    <path d="M 185.857459 306.88 
L 334.470516 306.88 
" style="fill: none; stroke: #000000; stroke-width: 0.8; stroke-linejoin: miter; stroke-linecap: square"/>
   </g>
   <g id="patch_21">
    <path d="M 185.857459 160.694634 
L 334.470516 160.694634 
" style="fill: none; stroke: #000000; stroke-width: 0.8; stroke-linejoin: miter; stroke-linecap: square"/>
   </g>
  </g>
 </g>
 <defs>
  <clipPath id="p7c866ee528">
   <rect x="29.81375" y="7.2" width="148.613056" height="146.185366"/>
  </clipPath>
  <clipPath id="p8a71d987e0">
   <rect x="185.857459" y="7.2" width="148.613056" height="146.185366"/>
  </clipPath>
  <clipPath id="p09478e199a">
   <rect x="29.81375" y="160.694634" width="148.613056" height="146.185366"/>
  </clipPath>
  <clipPath id="p539a2773a6">
   <rect x="185.857459" y="160.694634" width="148.613056" height="146.185366"/>
  </clipPath>
 </defs>
</svg>
